<svg width="21" height="25.3492" viewBox="0 0 21 25.3492" fill="none" xmlns="http://www.w3.org/2000/svg">
<path id="Ic&#195;&#180;ne" d="M10.5 25.3492L3.07534 17.9246C1.6069 16.4561 0.606884 14.5852 0.20175 12.5484C-0.203385 10.5116 0.00455799 8.40041 0.799282 6.48179C1.59401 4.56318 2.93982 2.92331 4.66653 1.76956C6.39324 0.615811 8.42331 0 10.5 0C12.5767 0 14.6068 0.615811 16.3335 1.76956C18.0602 2.92331 19.406 4.56318 20.2007 6.48179C20.9955 8.40041 21.2034 10.5116 20.7983 12.5484C20.3931 14.5852 19.3931 16.4561 17.9247 17.9246L10.5 25.3492ZM16.275 16.2749C17.4171 15.1327 18.1948 13.6776 18.5098 12.0934C18.8249 10.5093 18.6631 8.86727 18.0449 7.37506C17.4268 5.88284 16.3801 4.60743 15.0371 3.71011C13.6941 2.81278 12.1152 2.33383 10.5 2.33383C8.88483 2.33383 7.30592 2.81278 5.96294 3.71011C4.61995 4.60743 3.57321 5.88284 2.95507 7.37506C2.33693 8.86727 2.17515 10.5093 2.4902 12.0934C2.80524 13.6776 3.58296 15.1327 4.72501 16.2749L10.5 22.0499L16.275 16.2749V16.2749ZM10.5 12.8332C9.88117 12.8332 9.28767 12.5874 8.85009 12.1498C8.4125 11.7122 8.16667 11.1187 8.16667 10.4999C8.16667 9.88107 8.4125 9.28758 8.85009 8.84999C9.28767 8.41241 9.88117 8.16658 10.5 8.16658C11.1188 8.16658 11.7123 8.41241 12.1499 8.84999C12.5875 9.28758 12.8333 9.88107 12.8333 10.4999C12.8333 11.1187 12.5875 11.7122 12.1499 12.1498C11.7123 12.5874 11.1188 12.8332 10.5 12.8332Z" fill="#095D55"/>
</svg>
